<?xml version="1.0" encoding="utf-8"?>
<!-- Generator: Adobe Illustrator 24.0.1, SVG Export Plug-In . SVG Version: 6.00 Build 0)  -->
<svg version="1.1"
	 id="svg2985" inkscape:version="0.48.4 r9939" sodipodi:docname="KERALA_CONSTITUENCIES_WITH_DISTRICT_BOUNDARIES.svg" xmlns:cc="http://creativecommons.org/ns#" xmlns:dc="http://purl.org/dc/elements/1.1/" xmlns:inkscape="http://www.inkscape.org/namespaces/inkscape" xmlns:rdf="http://www.w3.org/1999/02/22-rdf-syntax-ns#" xmlns:sodipodi="http://sodipodi.sourceforge.net/DTD/sodipodi-0.dtd" xmlns:svg="http://www.w3.org/2000/svg"
	 xmlns="http://www.w3.org/2000/svg" xmlns:xlink="http://www.w3.org/1999/xlink" x="0px" y="0px" viewBox="0 0 1568.6 2692.4"
	 style="enable-background:new 0 0 1568.6 2692.4;" xml:space="preserve">
<style type="text/css">
	.st0{fill:none;stroke:#B00000;stroke-width:3;stroke-miterlimit:5;}
</style>
<g id="g2993" transform="matrix(1.25,0,0,-1.25,-238.52627,2911.0339)" inkscape:groupmode="layer" inkscape:label="KERALA">
	<g id="flowRoot3357">
	</g>
	<g id="g4489" transform="translate(-13.57645,122.18805)">
		<path id="path3799" inkscape:connector-curvature="0" class="st0" d="M258.9,2151c2.6,3.6,7.8-5.7,11.6,1.3
			c9.8,2.2,20.3,13.3,32.2,9.1c5.3-7,12.6,4.9,13.4,4.3c10.7-4.3,4.2-17-2-21.4c-1.6-5.4,14.3-4.9,7.1-12.5c6.6-2.1,18.2,7.9,21.7-2
			c-3.1-2.1,0.7-11.4-0.4-8.9c-10.5,4.2-4.5-17.7,4.9-11c2.5-3.5,5,3.2,9.1,4c-0.6,6.9-3.5,14.6,6.9,10c4.8-5.8,13.7-16,21.5-7.6
			c-0.9-5.4,9.3-4.6,3.1-12.1"/>
		<path id="path3801" inkscape:connector-curvature="0" class="st0" d="M388.1,2104.9c-6.9-2.6-6.7-10.7-0.5-14.3
			c6.5-6.8,13.6,8.5,20.6,1.1c-5.1-8.1,7.3-10.3,1.4-16.5c0-1.5,2.5-1,2.4-2.5"/>
		<path id="path3803" inkscape:connector-curvature="0" class="st0" d="M411.7,2073.7c0.7-8.9,11.5-12.4,14.3-3.1
			c9,0.8,7.2,15.7,16.8,15.8c0.7-0.7,2.3-1.3,2.5-1.8"/>
		<path id="path3805" inkscape:connector-curvature="0" class="st0" d="M444.4,2085.3c0.9-2.4,5.1-5.4,8.7-4.9
			c3.7-7.9,17.6-5.6,5.4-13.9c-2.7,3.9-13.7,7.4-14.7-1.3c-8.9,0.6-6.3-18.5,1.8-20.3c9.5,0.9,6.5-9.9,13.4-12.3
			c5.3,0.3,10.2-1.2,8.5-9.1c0.4-10.1,11.8-7.3,14.7-0.9c1.9,3.5-1.6,8.1,5.1,10.3c6.4,2.6,11.7,0.7,16.5-2
			c1.8-6.5,6.4-13.1-1.6-16.3c-5.8-6.2-13.6,0.7-20.6-2.4c0.4-12.5-1.4-25.9,10.9-29.7c6.1-3.6,17.3-5.8,10.9-16.5
			c-5.7-3.5,3.7-6.2,0.7-12.7c4.3-5.3,2.3-15.7,14.5-12.9c7.6,1.4,14.9,0.4,17.4-8.1c9.3-4.9,11.4-14.5,16.5-22.6
			c3.1-3.1,4.6-8,4.5-11.6c6.7-5.4,10.6-12.2,17-18.3c5.1-5.8,11.8-3.1,20.3-3.4c1.1-0.8,3.7-2.7,4.5-2"/>
		<path id="path3807" inkscape:connector-curvature="0" class="st0" d="M598,1874.2c8.9-3.5,3.3-23.2,16.7-22.4
			c6.1-5.1,9.6,12.1,14.7,1.6c1.7-5.1,7.4-7.8,7.8-14.3c6.1,4,11.4,1.3,16.7,6.3c7.8-2.9,25.9,2.8,18.5-10.7
			c-2.2-12.1,9-15.5,11-24.8c-0.7-7.6,5.2-11.4,10.5-13.2c3.2-9.3,12.1-11.9,19.9-13.2c2-0.8,9-1.2,10-0.7"/>
		<path id="path3809" inkscape:connector-curvature="0" class="st0" d="M722.3,1783.1c9.6-4.5,21.2-1.3,30.4-7.6
			c9.8-0.8,16,6.9,25.2,5.3c7.4,8.9,24.4,12.3,32.8,15c3.4-18-3-40.5,3.1-56.3c6.5,0.2,9.2,6.7,15.4,7.8"/>
		<path id="path3811" inkscape:connector-curvature="0" class="st0" d="M827.5,1747.3c17,5.9,31.7-3.3,28.2-19.6
			c1.6-9.5,16.9-13.4,24.4-6.7c9.2,1.9,9-8.9,16.3-10.7c3.2-7.6,5-17.6,13.8-20.3c8.4-5,11.4,5.4,20.3,1.4
			c1.7,3.8,10.8,4.5,14.5,4.9c-1.3-7,11.4-11.6,3.1-17.4c-1.5-4.9-9.8,2.9-6-5.4c1.4-1.8,2.7-4.8,2-7.4"/>
		<path id="path3815" inkscape:connector-curvature="0" class="st0" d="M944.1,1666.7c0.8-8.9,10.7-9.8,12.9-16.8
			c6.2-12.6-15-6.8-22.3-9.6c-5.4-6.1-5.4-16-14.5-18.1c-5.8-4.1-14.8,5.9-17.7-3.8c-3.7-5-10.6-7.5-9.2,1.8
			c-5.3,1.3-7.6,10-11.8,3.1c-6.3-3-20.3-7.2-14.7-15.9c3.5-5.7,6.1-11.9,2.7-17.7c1-1.4,1.5-2.4,2.2-4.2"/>
		<path id="path3821" inkscape:connector-curvature="0" class="st0" d="M871.2,1587.2c1-5.9-3.4-24.8,6.2-15.9
			c3.8-0.3,7.1,0.2,11.6,1.1c1.9-5.7,6.2-7.4,12.3-8.7c5.8-6.1,14.2,4.6,20.8-2.2c9.2-2,13.4-13.4,24.3-8.5
			c0.2-11.7,12.3-15.9,19.6-23.5c7.9-4.4,25-1.4,25.2-12.7c-0.6-2.8,19.7,4.3,14.3-7.4c-0.6-7.8-7-12.8-4.2-20.1
			c-6.1-5.5-9.4-15.1-19.2-15.8c-11.1-4.4-22.6-9.7-22.1-25c-4.6-3.7,3.5-7,6-7.6c7.7-0.4,3.6,7.2,8.9,8.7
			c13.3,5.4,23.6-11.1,32.6-4.7c11.1,2.2,22.3,5.8,31.3-0.9c7.7-1.2,15.2,7.2,23,9.8c3.3,6.6,11.2,13.3,17.4,6
			c8.1-1.1,8.8-9.2,3.6-12.7c6.7-7.5-7.2-7.1-9.6-10.9c-9.1-4.8-3-17.6,7.8-14.5c1.1-7.5,7.3-6.5,12.7-7.4
			c4.1-7.1-5.5-13.1,2.4-17.4c5.9-6-10.5-11.8-0.2-16.7c2.7-1.1,5.1-1.5,6.7-3.4"/>
		<path id="path3823" inkscape:connector-curvature="0" class="st0" d="M1102.5,1377.6c0.6-6.1,11.2,0.3,13.2,1.6
			c-1.2-9.9-16.3-12.7-23.2-7.8c-10.1,4.7-17.5,2.3-21.9-6.3"/>
		<path id="path3825" inkscape:connector-curvature="0" class="st0" d="M1070.7,1366.2c-4.2-8.2-4-19.2-11.2-24.6
			c-1.1-6.6-4.5-13.1-4.7-17.6c6.2-7.7,18.6-10.6,28.4-13c6.1-4.1,10.4-6,18.6-3.6c2.4-4.5,9.5,0.8,12.1-4.2"/>
		<path id="path3827" inkscape:connector-curvature="0" class="st0" d="M1112.7,1303.9c5.2-3.7,18.8-4,21.2-13.2
			c8.8-4.3,5-10.1,5.4-17.2c7.8-1.9,13.8-3.5,18.5-2c3.4-2.8,11-14.3,6-24.3c-4.1-3.5-7.9-9.8-5.6-16.7"/>
		<path id="path3831" inkscape:connector-curvature="0" class="st0" d="M1157.6,1231.1c-2.6-5.4-12.5-11.2-9.6-19.2
			c10.1-5.5,7.2-24.8-4.7-21.4c-5,1.5-25.6,3.6-18.6-7.1c-1.3-11.8,5.7-7,10.3-11.2"/>
		<path id="path3833" inkscape:connector-curvature="0" class="st0" d="M1134.4,1173.4c0.2-8.8-2.2-17.3,0.2-25.3
			c1.5-8.8-5.8-19.3-3.8-31.1c2.1-9.5-11.6-24.7,0.4-27.5c1-4.4-5-8,1.8-11.6c7.9-5.3,4.4-13.1,1.4-20.3
			c-1.4-11.5-6.6-14.9,2.7-18.6c-1.4-9.6,7.6,0.2,12.3,0c6.8,1.6-4.6-11.1,5.3-12.9c9.4-3.4,8.9-17.5,21.2-17.6
			c5.2,5.9,12.5-0.4,19.4-2.4c6.6-6.2,17.8,11.4,25.7,11.2"/>
		<path id="path3835" inkscape:connector-curvature="0" class="st0" d="M1219.7,1017.3c4.7,0.4,15.6,6.3,9.1,14.1
			c6.5,8.6,21.5,13.2,32.4,17.4c7.3,4.8,16.6,9.8,22.1,16.3c10.4,2.3,17.3-0.2,27.9-2.4c3.2-7-5.1-18.1,3.8-24.6
			c5-9.4,11-15.1,8.5-28.1c10.1,3.6,20.3-5.6,11.8-13.4c-5.3-8.9-6.9-22.6-6-34.2c-6.4-5.5-15,4.1-21-3.6c-6.1-0.6-13.1-1-10-10.5
			c1.8-7.6,8.9-11.2,13.9-17c7.1-5.6,16.7-15.4,9.1-22.3c4-5.7,7.9-14.5,8.5-21.4c-5.3-4.9-13.5-5.8-15.8-13.2
			c-3.2-8.4-9.9-12.8-9.1-22.4c-7.2-9.5,13.9-10,3.8-15.6c-4.6-2.6,2.4-5.2-0.4-11.4c9.2-1.6,11.5-11.9,4.2-17.2
			c-9.4,4.1,0.4-10.3-4.3-14.8"/>
		<path id="path3837" inkscape:connector-curvature="0" class="st0" d="M1307.8,793.9c-1.5-7.4-1.6-16.4-8-14.8
			c0.5-14.3-4.1-22.8-11.9-30.8c-3.5-8-10.7-24.7,5.3-20.5c7.4,6.6,9.2-4.1,12.5-6.3c6.1-5.7,15.3-3.5,21.5-8.9
			c10,1.1,17.7,16.9,27.2,11.2c-5.1-8.4,7.8-14.1,7.6-4.2c3.6,8.4,8.6,2,6.9-4.3c-2.6-5.1-2.4-8.4,2.2-12.1
			c-1.9-8.7,5.4-15.1,12.1-15.2c2.7,4,8.3-3,8.1-6.2c-7.9-3.6-3.2-25.4-14.8-22.1c-10.3,3.1-13.1-13.1-17.7-20.5
			c3-12.1-0.5-28.6-8.9-35.1c-9.6,4.3-7.6-4.6-8.7-10.9c-11.4-3.8-2.6-15.9-7.6-24.6c1.4-12.5-5.2-5.5-1.3-18.6"/>
		<path id="path3839" inkscape:connector-curvature="0" class="st0" d="M1332.3,550.9c0.7-7.6-11.1-6.5-10.7-12.7
			c9.9-4.5,6.8-20.3-0.9-24.4c-4.3-6.5-11.6-9.4-15.8-16.5c-5.6-4.4-5-15-9.2-21.2c2.2-4.8-5.7-5.2-8.5-1.8c-7.3,0.5-4.9-8.9-11-11"
			/>
		<path id="path3841" inkscape:connector-curvature="0" class="st0" d="M1276.5,464.4c-4.6-4.8,3.2-9.7,4.9-13.8
			c7.8-1.3,3.2-13.3,11.6-13.6c6-5.9,0-19.9,9.6-21.5c6.6,0.5,4.7-9.1,12.1-7.4c-3.3-10.2,9.9-7.8,9.8-13.9
			c-1.8-6.9,2.1-11.5-1.8-15.9"/>
		<path id="path3843" inkscape:connector-curvature="0" class="st0" d="M1323.1,379.7c-4.4-3.9-4.3-11.8-10.3-14.1
			c-0.9-8.3-6.5-11.8-9.6-18.1c-2.4,0.5-6.9,2.8-6.7-4.7c2.3-10.8-14.2-1.2-11-7.2c2.1-12,20.9-19,14.3-33.3"/>
		<path id="path3845" inkscape:connector-curvature="0" class="st0" d="M1299.5,303.1c2.2-3.3,6.6-11.8,13-15.2
			c3.2-3.3,8.4-7.3,7.1-13.2c7.3-7.1,11.9-17.8,14.3-26.8c-5.4-8.3-6.5-20.8-17.4-22.4c-1.1,7.9-19.4,11.1-16.3,1.1
			c5.2-3.6,1.7-12.7,8.1-15.6c5.8-10-9.7-6.3-10.9-15.2c-4.1-7.8-8.7-18.2-16.1-19.2c-10.1,1.3,2.7-6.8-4.3-11.9
			c3.3-0.4,16.2-2.3,7.4-7.6c1-3,8.3-15.1,0.2-7.6c-6.4,2.2-20,4-21.2-7.1c-6.8,1.4-10.1-7.4-12.9-8.1
			c-12.1,7.8-21.5,23.3-36.6,28.6c-5.2-0.5-1.7,0.9-2.9,3.6"/>
		<path id="path3847" inkscape:connector-curvature="0" class="st0" d="M1211.5,165.5c-3.4,8.2-17,6.2-16.8,18.8
			c-7.6,16.3-21.5,27.5-32.8,42.4c-10.4,10.3-17.8,21.8-25.7,31.5c-11.5,13.3-21.6,28.2-34.4,42c-10.5,16.7-23.6,28.2-34.4,43.6
			c-6.2,14.2-17.3,21.9-24.4,35.5c-7.3,9.1-20.2,19.8-30.6,21.4c-8.5,5.6-14.5,13.4-12.3,27.2c-6.7,13.1-7.4,31-13.6,43.5
			c-6.3,19.8-18,37.4-25.3,58.1c-4.1,4-4.1,9.6-7.6,14.3"/>
		<path id="path3849" inkscape:connector-curvature="0" class="st0" d="M953.7,543c-5.6,14.7-10.7,28.1-19,41.6
			c-4.5,17.2-15.6,32.5-20.5,50.3c-10.4,21.5-13.4,47.5-19,72.4c0.2,3.6-0.5,6.9,0,10.3"/>
		<path id="path3855" inkscape:connector-curvature="0" class="st0" d="M894.9,716.4c-1.3,27.7-5.9,53.5-8.3,80.6
			c-1.1,2.2-2.1,5.4-2.4,8.1"/>
		<path id="path3859" inkscape:connector-curvature="0" class="st0" d="M884,803.7c-3.5,25-6.8,49.2-14.8,71.5
			c-7,9.1,4.8,23-9.1,26.8c-7.8,15.5-12.1,32.2-15.2,50.3c-4.8,13.3-7.3,28.4-14.1,37.8c-0.2,2.5-1.1,4-1.4,6.2"/>
		<path id="path3861" inkscape:connector-curvature="0" class="st0" d="M829.5,995.6c-8.5,27.2-14.3,55.5-24.8,80
			c-4.4,11.9-11.4,25.8-14.8,37.7c-11.6,16.1-22.3,34-27.5,54.1c-8.6,18.8-17.1,39-26.4,58.3c-4.3,12.5-14.3,27.7-17.4,43.1
			c-5.1,21.7-8,44.3-13.8,65.4c-4.3,11-5.5,24.6-9.6,34.9"/>
		<path id="path3863" inkscape:connector-curvature="0" class="st0" d="M695.4,1367.8c-2.4,22.2-9,43.6-21.2,58.8
			c-8.6,14.1-10.4,34.2-17.4,47.4c-2.3,10.8-5.7,24.6-14.3,31.1c1,14-8,25.3-13.6,36.2c-4.7,12.3-14.1,24.5-27.5,25.9
			c-7.3-6.3-12.2,6.4-12.7,13.6c-2.1,7.5-5.4,13.7-7.6,21"/>
		<path id="path3865" inkscape:connector-curvature="0" class="st0" d="M581.1,1601.2c-4.2,16-10.3,30.3-15,45.4
			c-6.3,7.9-6.8,19.5-13.9,25.5"/>
		<path id="path3867" inkscape:connector-curvature="0" class="st0" d="M552.7,1671.1c-1.5,7.3-9.7,4.7-10.5,14.7
			c-7.6,6.4-16.9,13.3-23.5,21c-1.7,9.6-11.1,15.4-18.1,22.3c-3.7,5.1-9.6,11-14.3,15.9c-2.7,1.5-4.7-1-4.7-3.6"/>
		<path id="path3871" inkscape:connector-curvature="0" class="st0" d="M481.9,1742.4c-7.3-3.6-10.5,10.1-15.9,15.8
			c-8.4,10-11.3,22.8-22.1,31.7c-8.1,10.4-14.1,28.7-27.5,28.2c-3.4-9.2-12.9-7.1-14.3,2.4c-5.9,18.5-15.6,33.3-20.5,52
			c-7,16.1-12.6,33.5-19.4,47.8c-2.7,13.6-9.8,24.8-14.5,36.6c-4.7,15.8-12.3,25.4-19.7,36.8c-1.4,1.6-5.8,8.2-7.4,12.3"/>
		<path id="path3879" inkscape:connector-curvature="0" class="st0" d="M259,2151.6c6.4-21.6,18.6-40.4,25.9-62.5
			c6.3-14.4,12.1-29,17.9-42.8c2.6-5.6,2.3-12.7,7.2-16.4"/>
		<path id="path3881" inkscape:connector-curvature="0" class="st0" d="M309.7,2031.2c2.7-9.8,7.8-18.8,11.3-27.1"/>
		<path id="path3909" inkscape:connector-curvature="0" class="st0" d="M491.5,1877.1c-0.3,6.4-4.5,6.7,1.3,12.5
			c-12.2-4.8-10.8,15-9.2,21c-7.4,6.2,3.9,13,9,6.9c7.4-0.2,8.2-10.2,11.8-12c-1.8,10.9,8.9,5.3,12.5,12c-0.4,2-2.3,4.5,1,7.4
			c-3.3,6.3,15.9,9.2,20.2,6.7 M491.6,1876.8c8.2-0.3,2.8-12.1-4.7-8.5c-2.1-5.2-14.7-5.5-18.9-12.5c-4.7,1.9-15.8,6.6-11.8-5.4
			c-3.4-7.1-12.6-14.5-1.3-16.6c2.6-4.1,18.5,7,11.8-5.6c-3.5-5.7,14.6-19,1.3-19.7c-3.2-0.8-2.4-18.5,4.9-9
			c5.2,2.2,11.5,6.5,12.8-0.5c-0.3-7.6-11.7-5.8-13.3-11.3c-7.8,6.4-10.9-11.2-19.5-3.1c-1.2,0-2.2,0.6-3.6,0.3"/>
		<path id="path3925" inkscape:connector-curvature="0" sodipodi:nodetypes="ccc" class="st0" d="M551.1,1737
			c2.2-9.1,8.9-18.8-3.5-22.5c-17,1.9-13.4-1.5-23-14.1"/>
		<path id="path3929" inkscape:connector-curvature="0" sodipodi:nodetypes="ccccccccc" class="st0" d="M651,1741.6
			c-13.5,1.8-6.3-1.9-7.4-6.7c-3.9,2.4-8.9,6-12.3,3.8c-5.7,4-10.6-5.3-17.9-3.6c-5.4-7.4-4.8,7.1-9.5-0.8c-7.1-3.2-12-8.7-22.3-4.9
			c-0.5,8.1-11.8-0.6-6.9,8.7c-5.3,0.6-7,11.9-11,3.3c-3.7-7.7,0.9-13.1-12.8-4.4"/>
		<path id="path3935" inkscape:connector-curvature="0" class="st0" d="M651.5,1742.4c-1.3-3.6-0.2-5.2,4.2-3.4
			c3.9-3.9,10.1-4.2,12.3,0.9c0.5,0.4,2.9,0.3,4.2-0.9"/>
		<path id="path3941" inkscape:connector-curvature="0" sodipodi:nodetypes="cccccc" class="st0" d="M661.8,1718.7
			c6.4,1.9,13.6,8.9,7.3,13.7c-2.9,6.4,6.4,7.4,10,10.1c4.9-1.9,9.9-2.1,15.2-2.4c8.3-3.2,18.1-4,27-4.3c2.1,0.5,3.6,0.6,5.4,1.6"/>
		<path id="path3943" inkscape:connector-curvature="0" class="st0" d="M725.8,1737c8.2,5.9-0.2,10-2.2,14.7
			c10,0,12.1,14.8,5.1,20.3c-0.7,4,1.9,6.1,4.2,7.8"/>
		<path id="path3945" inkscape:connector-curvature="0" sodipodi:nodetypes="ccccccccc" class="st0" d="M661,1718.1
			c6.3-0.2,10.2-12.9,6.2-20.3c5.9-2.2,2.7-8.9,10.5-8.3c5.8-6.3,11.9-9.8,17-15.9c6.3-7.4,32.6,1.4,25.7-10.1
			c-2.5-5.3-2.4-14.6-3.6-21c0.3-7.5,2.7-14.2,7.6-18.1c10.4-1.9,16.9-8.7,21.4-18.1c2.7-1.7,5.1-3.3,7.4-4.9"/>
		<path id="path3947" inkscape:connector-curvature="0" sodipodi:nodetypes="ccccccc" class="st0" d="M682.3,1412.5
			c2.3,1.7,8.9,9.1,14.8,6.2c-2.1,4.3-0.7,17,7.2,11.9c13.8,2.2-0.8,8.1-4.3,11.6c-5.3,6.8,3.9,7.9,6.9,13.8
			c8.9,0.2,10.3,10.7,18.1,6.5c7.6,4.6,20.5,5.4,25.3,13"/>
		<path id="path3957" inkscape:connector-curvature="0" sodipodi:nodetypes="ccc" class="st0" d="M641,1558.1
			c-0.2-8.9,13-12.9,6.9-26.8c1.3-8.7,1.8-16.1-5.1-16.7"/>
		<path id="path3961" inkscape:connector-curvature="0" class="st0" d="M639.6,1558.1c-0.4,2.9,10.2,8.8,2.5,14.1
			c-4.6,10.9,2.2,14.5,10.1,15.6c5.7,2.4,12.8-7.8,16.3,0.7c-3.1,6-6.1,11.8,1.8,14.8c2.9,6.7,15.7,4.1,18.1,1.1
			c11.7,1.9,25.5,8.3,18.5,21.7c2.6,6.3,6.9,9.4,10.9,9.1"/>
		<path id="path3981" inkscape:connector-curvature="0" sodipodi:nodetypes="cccc" class="st0" d="M690.3,1391.5
			c5.7,3.3,11.8,0.9,17.4-5.4c-1.8-3.4-4.6-18.7,1.4-9.4c4.6-0.4,9.3,0.7,11.6,2.6"/>
		<path id="path3985" inkscape:connector-curvature="0" sodipodi:nodetypes="cccc" class="st0" d="M779.3,1440
			c-1.4,3.9-6.8,7.7-9.3,9.4c1.2,6.1-1.3,6.7-3.3,10.5c5.5,2.4-12.3,12.2-14.8,14.9"/>
		<path id="path3987" inkscape:connector-curvature="0" sodipodi:nodetypes="cccccc" class="st0" d="M779.7,1440.4
			c6.5-1.8,7.4-14.4,13.8-9.1c2.5-6.9,18.4,1.1,11.9-7.2c0.1-6.8,14.5-5,15.2-7.2c1.7-7.3,15.3,3.1,19.2-4c6-3.1,8.2,0,8.7,5.1"/>
		<path id="path3995" inkscape:connector-curvature="0" class="st0" d="M847.1,1416.5c8.9,1.9,17.7-2.8,24.3,4.7
			c4.7,6.2,12.3,5.1,10.1-2.5c9.7,2.1-1.4-12.8,2.5-18.5c1.1-5.5,11.8-0.5,13.8-9.1c6.6,2.3,7.1,8.3,17,5.8"/>
		<path id="path3997" inkscape:connector-curvature="0" sodipodi:nodetypes="ccccc" class="st0" d="M753.9,1357
			c-2.2,4.2-4.2,8.2-6.8,11.3c-4.3,2.1-12.8-3.4-12.7,5.1c-0.4,2.5-10.9,8.4-10.9,2.9c-1,0.9-1.9,0.8-2.9,2.2"/>
		<path id="path3999" inkscape:connector-curvature="0" sodipodi:nodetypes="cccc" class="st0" d="M752.6,1357.1
			c8.5,0.5,12.3,1.3,17.7-5.4c0.5,5.7,8.1,4.5,5.8,9.4c-3.3,5,0.2,8.9,2.5,13"/>
		<path id="path4001" inkscape:connector-curvature="0" sodipodi:nodetypes="cc" class="st0" d="M778.6,1373.4
			c9.7-2,2.8-21.7,18.8-18.5"/>
		<path id="path4011" inkscape:connector-curvature="0" class="st0" d="M816.7,1308.6c-3.5,0.6-8.2,11.3-2.2,17
			c-2.8,7.8-15.4,2.6-18.1,10.1c-15.6,1.2,6.9,8.2,3.6,17.4c-0.4,1.2,0.6,0.8,0.4,1.8"/>
		<path id="path4019" inkscape:connector-curvature="0" sodipodi:nodetypes="cccccccccccccccccccccc" class="st0" d="M740.6,1213.7
			c2.4,2.8,7.9,3.9,14.8,2.9c10.1-1.1,19.3,3.6,29.3,8c-3,4,2.9,5.5,6.5,7.2 M808.2,1291.3c0.2,1.7,0,3.5-0.6,5.3
			c6.8-1.4,4.2,8.6,11.6,6.2c-3.9,10.5,3.5,4.4,10.1,3.3c3.3,6.3,3.4,14.2,10.5,8c4.7-2.3,13.7-10.5,17-0.7
			c4.5-7.1,18.6-14.2,21,0.7c10.8,4.2,19.5,4.8,28.6-0.7c10.6,2.2-11.3,16.8-0.4,24.6c-0.5,12,8.1,9.3,16.7,8.3
			c6.9,9.5-5.8,10.6-11.2,11.2c-9.8-3.2-4.4,13.8-15.2,12.3c-10.5-6-8.6,7.3-3.3,9.1c14.6-3.9,14,6.3,17.7,14.5
			c5.4,2.1,11.1,11,21.7,9.1c11.4,3.8,14.5,14,10.9,27.5c3.7,7.6-12,17.2,1.8,21.4c5.5,0.3,9.2-3,13.8-3.6"/>
		<path id="path4021" inkscape:connector-curvature="0" sodipodi:nodetypes="ccccccccccccccccccccc" class="st0" d="M791.7,1234
			c14.2,1.1,19.4-13,31.9-6.2c8.1-3.7,13.7-7.6,17,2.5c4,9.3,18.7,16,6.2,24.3c2.5,3,14.4,3.2,17.7-1.4c10.5,0.7,2.3-15.7,14.8-9.4
			c13.2,4.1,20.8-2.6,33.7-3.3c9.9-9.8,6.2,13.1,18.8,7.6c5.3-2.9,8.1-9.8,17-5.4c6.9,1.1,16.1,1.4,20.9-1.3 M941.4,1170.3
			c0-1.6,1.5-2.9,5.6-3.6c4.4-7.1,12.3-11.7,8-23.9c12.6-4,14.4-19.6,27.2-23.9c6.9-5,15.5-2.8,18.8-10.5c7.1-4.6,12.7-8.7,22.5-9.1
			c10-6.6,8.6-25.6,25-23.9c14.1,3.7,19.5-12.3,31.5-4.3c9.4-0.1,26-1.4,18.1-11.2c2.1-8.4,17-3.2,23.9-2.5
			c2.3,5.8,11.5,0.1,13.4-1.1"/>
		<path id="path4027" inkscape:connector-curvature="0" sodipodi:nodetypes="cccc" class="st0" d="M1162.5,1018.6
			c-12.1,3.1-21.8,14.5-36.9,11.6c-12,4.4-23.8-7.1-37.7-2.5c-6.7-2.1-15.1-3.3-22.6-2.6"/>
		<path id="path4029" inkscape:connector-curvature="0" sodipodi:nodetypes="cccc" class="st0" d="M832.6,987.1
			c7.5,4.6,21.9,3,27.5,10.1c9.2-1.2,19.1-0.2,20.3-9.1c3.3-9,14.8-3.6,20.3-1.4"/>
		<path id="path4033" inkscape:connector-curvature="0" sodipodi:nodetypes="ccc" class="st0" d="M905,973.2c1.8,2,1.9,4.5-1.8,8.4
			c3,3.5,2.2,5.3-2.2,5.4"/>
		<path id="path4035" inkscape:connector-curvature="0" sodipodi:nodetypes="cccccc" class="st0" d="M905.4,974
			c2.6-8.8,3-12.7-1.4-15.6c5.9-0.6,13.1-3.2,8.3-10.9c-4.8-4.2-8.2-19,1.4-9.4c4-3.8,8.3-12,14.8-15.9c2.1-9.9-2.6-27.6-12.3-20.3"
			/>
		<path id="path4043" inkscape:connector-curvature="0" sodipodi:nodetypes="cccsc" class="st0" d="M911.2,895.5
			c11.7-3.7,2-29.4,18.1-26.1c8.1-1.7-3.2-10.5-0.4-15.9c2.2-6.6,5.8-11,5.5-19.2c-0.1-1.9-4.6,0.6-7.2-1.2"/>
		<path id="path4047" inkscape:connector-curvature="0" class="st0" d="M913.7,895.1c-1.1,4.5,3.6,3.9,3.3,5.8"/>
		<path id="path4055" inkscape:connector-curvature="0" sodipodi:nodetypes="cccccccc" class="st0" d="M1001.5,921.5
			c1.4-8.6,4.8-16-7-17c-9.7,0.2-5-18.1-14.1-13.8c6.1-4.2,2.6-10.6-4.7-8.7c-2.5-10.7-16.5,0.1-20.3-6.2c2.1-11.8-9-9.8-12.7-4
			c-7.1,2.4-17.9,5.5-16.7,13c1.3,3.6-13.5,9.7-6.2,14.8"/>
		<path id="path4059" inkscape:connector-curvature="0" sodipodi:nodetypes="cccc" class="st0" d="M1045.5,971.9
			c-14-0.6-30.2-0.8-29.7-17.7c-1.2-5.8,2.3-15.3-7.6-12.7c3-9.2-1.7-16.5-6.3-20.5"/>
		<path id="path4061" inkscape:connector-curvature="0" sodipodi:nodetypes="ccc" class="st0" d="M1044,971.3
			c4.8,4.1,9.1,24.9,17.5,31.4c4.9,4.9,1.8,15.6,4.3,22.5"/>
		<path id="path4063" inkscape:connector-curvature="0" class="st0" d="M986.8,892.2c11.8-0.1,13-10.6,17.7-18.5
			c8.9-4.9,18.8-9.6,19.9-21c2.8-4.6,6.7-8.8,8.7-12.7"/>
		<path id="path4067" inkscape:connector-curvature="0" class="st0" d="M882.9,808.2c5.8,2.9,9.5,13.2,2.9,16.3
			c-3.3,9.6,14.2,11.8,5.8,23.2c-4.2,14.5,9.8,0.5,15.2,0.7c10.6,0,14.4,4.8,16.7-4.7c0.2-10.2,13.6-20.9,1.8-27.9
			c-5-10.9,5.7-17.4,4-27.5c2.6-11.2-4.6-25.4,9.1-25c1.8-15.6,0.6-32.4-1.8-46.7"/>
		<path id="path4075" inkscape:connector-curvature="0" sodipodi:nodetypes="cccccccccccccc" class="st0" d="M937.2,719.1
			c-2.6-9.9-3.3-21.9,7.2-13.8c4.5-3.4,12.8-4.8,19.9,0c5.9-1.4,6.3-9.7,10.1-14.1c-1.6-5.6,0.5-8.2,3.6-9.9 M988.7,631.9
			c-4-13.4,11.6-15-1.4-19.6c-7.5-3.9-24.7-9.1-6.5-11.2c7.7-2.9,33.3-6.1,26.4,7.2c9.3,10.5,24.3-3.1,35.1-1.4
			c7-3.1,4.8-14,11.6-18.8c0.2-5.8,15.7-6.1,5.1-13.4c-2.1-7.5-5.6-12.8-9.8-17.7c-1.9-2.4,2.2-5.6,0-6.9"/>
		<path id="path4077" inkscape:connector-curvature="0" sodipodi:nodetypes="cccccccc" class="st0" d="M1001.3,512.4
			c6.1-4.4,7.8-14.1,18.2-6.9c2,3.2,6.1,4.5,10.5,5.6 M1043.6,515.6c1.3,0.9,2.3,2.1,3,3.6c8.4,1.9,16.7,0.2,15.9,9.8
			c13,0.6,0,8-2.5,12.3c-5.4,2.4-11,6-11.2,10.9"/>
		<path id="path4085" inkscape:connector-curvature="0" sodipodi:nodetypes="ccc" class="st0" d="M921.5,676.5
			c3.2,0.7,5.5,3.1,6.3,8.9c6.8,2.3,7.2,15.5,9.1,17.7"/>
		<path id="path4087" inkscape:connector-curvature="0" sodipodi:nodetypes="ccccc" class="st0" d="M922,676.8
			c-0.2-10.2-2.7-18.1,2.2-25.3c0.4-5.7,2.7-7.4,5.8-14.1c1.6-10.7,15.8-3.6,8.3-15.6c-5.2-6.8-8.2-13.5,3.6-14.1"/>
		<path id="path4089" inkscape:connector-curvature="0" sodipodi:nodetypes="cccccc" class="st0" d="M941.6,606.5
			c10.8,0.2,12.7,5.1,22.8,5.4c8.4-4.8-3.1-12.8-3.3-13c-1.5-8.9,6.7-16.1,8.3-4.3c5.9,0.2,13.2-6.5,14.8-12.7
			c0.2-2.3,0.8-5.2,1.3-8.1"/>
		<path id="path4095" inkscape:connector-curvature="0" class="st0" d="M990.1,572.8c9.7,5.3,5.1-6.2,5.1-13.4
			c0.8-8.8,3.4-21.8,14.1-19.6c-0.1,11.2,5.7-4,11.6-5.8c7.7-10-12.4-7.5-9.1-17.4c-2.9-0.9-6.4-1.5-8.3-4.7"/>
		<path id="path4101" inkscape:connector-curvature="0" class="st0" d="M807.5,1291.5c-0.5-6,19.7,1.1,16.9-11.5
			c-3.1-8.1,4.5-19.8,13.3-16.4c8.9,7.9,1.1-9.5,9.2-7.4"/>
		<path id="path4109" inkscape:connector-curvature="0" sodipodi:nodetypes="cc" class="st0" d="M976.8,1249.5
			c0.4-2.4-1.2-4.2-5.9-6.6"/>
		<path id="path4113" inkscape:connector-curvature="0" sodipodi:nodetypes="ccc" class="st0" d="M978,1249
			c11.2,0.1,13.6,13.6,25.9,10c2-3.4,5.3-3.9,8.5-3.7"/>
		<path id="path4115" inkscape:connector-curvature="0" sodipodi:nodetypes="cccccc" class="st0" d="M1060.2,1229.2
			c-2.2-1.2-5.6-0.2-7.7,3.2c-6.9,5.9-16.9-14.7-17.2,1.8c-2.9,7.8-6.8,7-8.2-1c-6.2-3.2-21.6,1.6-21,6.1c2.3,5.3,7.5,10.1,6.1,16.4
			"/>
		<path id="path4123" inkscape:connector-curvature="0" class="st0" d="M1060.2,1228c7.8,2.1,22.8-4.1,19.5,7.9
			c-7.5,6.8,13.8,3.4,16.1,0.3c4.3-1.6,8.9-9.5,9.2-0.5c5,4.3,6.1,0.3,5.6,7.2c5.9,1.8,15.2,2.3,10.2,7.9c2.4,4.6,6.2,7.4,12.3,11.3
			c-0.4,6.6,8.5,7.2,10.2,11"/>
		<path id="path4127" inkscape:connector-curvature="0" sodipodi:nodetypes="cccc" class="st0" d="M756.8,1216.8
			c7.4-0.6,9.5-4.3,15.9-7.4c2-6.9-0.8-14.5,4.6-20c5.4-1.9,8.4-5.1,10.1-8.9"/>
		<path id="path4129" inkscape:connector-curvature="0" sodipodi:nodetypes="cccccccc" class="st0" d="M786.2,1178.3
			c7.4,3.6,9,11.5,20.2,10.8c2.9,4.3,8.8,2.5,10.5,8.2c9.3-1.8,6.9-3.3,7.4-9.5c-1.9-9.1-17.2-10.5-12-21.5
			c-1.6-5.4-4.4-11.9,3.1-15.9c-0.9-6,3.6-11.8,6.7-15.6c2.2,0.5,4,0.6,5.6,0.4"/>
		<path id="path4133" inkscape:connector-curvature="0" sodipodi:nodetypes="ccccccc" class="st0" d="M891.6,1175.6
			c-1.4-1.3-3.3-2-6.8,0.5c-5-1.8-10.4-15.5-9.5-8.2c-6.4,6.3-3.7-14.7-12-5.1c-3.9-3.6-12.6-1.2-12.5-9.5
			c-6.5,0.2-12.6-5.1-18.4-9.2c-9.8,0.5-6.2-3.8-5.1-8.7"/>
		<path id="path4137" inkscape:connector-curvature="0" class="st0" d="M891.7,1175.5c7.9-5.4,18.5,1.4,22.3,7.7
			c7,4.4,15.8-2.4,16.1-7.4c5.1,0.2,8.2-3.3,11-5.6"/>
		<path id="path4141" inkscape:connector-curvature="0" sodipodi:nodetypes="cccc" class="st0" d="M824.3,1080.8
			c-1.8-2.2-3.7-2.7-4.8,3.1c-12.5,6,3.3-14.2-4.6-16.1c1-4.3-5.1-3.8-6.1-4.1"/>
		<path id="path4145" inkscape:connector-curvature="0" sodipodi:nodetypes="cccc" class="st0" d="M824.1,1081.1
			c3.9-6.2,4.3-15.5,6.1-19.7c-2.7-1.9-1.4-9.7,0.8-13.3c7.3,0.4,0-11.9,6.9-15.4"/>
		<path id="path4147" inkscape:connector-curvature="0" sodipodi:nodetypes="cccccc" class="st0" d="M837.4,1033.4
			c7.2-0.1,19,7.4,14.1,11c-8.9,2.6,19.2,4.2,11.3-5.9c-2.5-10.2,9.6-5.4,10-1.3c5.4,1.7,8.8-8.4,13.6,0.8c3.5,0.6,5.9-0.6,7.3-2.7"
			/>
		<path id="path4149" inkscape:connector-curvature="0" sodipodi:nodetypes="ccc" class="st0" d="M893.5,1035.2
			c9.1,1.9,2,17.5,5.4,24.3c-5.6,1-16.7,3.6-10,12"/>
		<path id="path4151" inkscape:connector-curvature="0" class="st0" d="M887.9,1072.3c0.7,3.6,14,10.1,12.3-1
			c4.1,5.3,11.8-6.5,8.7,2c9.7,0.4,16-11.1,25.3-3.1c5.8-1.9,11.3-5.6,16.1-3.1c12.4,5,26,7.5,38.9,12.8c7.6,7.3,20,13.4,29.7,18.7
			c0.9,1.1,0.5,0.8,1,2"/>
		<path id="path4157" inkscape:connector-curvature="0" sodipodi:nodetypes="cscccccccc" class="st0" d="M1033.9,840.7
			c0.8-0.6,10.7-5.5,11.8-5.9c7.7-2.9,19.9-0.2,25.8-7.7c7.2-3,16.5-13.2,24.3-10.2c2.6,9.6,12.6-2.4,18.7-3.8
			c16.5-8.8,22.4-30.3,42.2-36.1c6.6-7.1,6.4-18.7,14.9-24.3c1.5-6.5-1.1-14.3,5.6-18.2c-3.6-11.3-17.8,14.3-19.2-2
			c0.6-8.3,6.8-14.8-2.6-17.9"/>
		<path id="path4163" inkscape:connector-curvature="0" sodipodi:nodetypes="cccccccc" class="st0" d="M1154.7,715.9
			c3.4-6.8-0.3-20.7,9-22c1-10.3,16.8-15.2,23.3-18.2c4.8,12.9,20.2-4.2,12-11.5c-1.4-0.6-3.1-1.3-4.8-2.2 M1036.1,661.1
			c-8.7-3.6-14.1-8.7-10.5-18.4c-1.8-2.5-8.3-0.9-10.2-2.8"/>
		<path id="path4165" inkscape:connector-curvature="0" class="st0" d="M989,631.7c1.6,2.4,14.2,14.4,19.5,9.2
			c-0.2-6.2,6.4-1.3,7.9-1"/>
		<path id="path4175" inkscape:connector-curvature="0" class="st0" d="M1042.8,516.2c3.5-6.4,1-9.2,9.5-11.3
			c9.7,4.9,12.8-7.3,10-15.6c2.8-4.2,8.7,7.8,16.4,1.5c9.1-3.2,20.1,3.4,21.8-4.6c10.1,0.4-3.1,17.1,12.5,17.9
			c9.4,1.2,19.2-16.3,29.2-4.9c-0.9,7.3,10.2,9.1,14.9,9.2c8.4,1.4,15.1,0.3,20.5-3.3"/>
		<path id="path4179" inkscape:connector-curvature="0" class="st0" d="M1175.7,506.2c5.9-5.6,20.9,4.6,6.4,9
			c-13-2.9-8.3,25,1.5,12.3c8.8-6,22.1-9.4,32.8-13.3c1.9-2.7,4.4-2.8,7.2-4.1"/>
		<path id="path4181" inkscape:connector-curvature="0" class="st0" d="M1221.7,510.8c4.7-2.9,11.2,1.4,11.3-4.4
			c12-0.2,18-11,31.7-11c5.7-7,18.3-3.9,26.1-8.4c3.1-0.5,6.5-0.6,9.2-1.5"/>
		<path id="path4185" inkscape:connector-curvature="0" sodipodi:nodetypes="ccccccccccc" class="st0" d="M1140.5,438
			c2.2,0.8,4,2.3,5.5,4.5c11.4-6,8.2,10.1,15.6,9.5c-5.7,8.6,9.4,0.4,7.7,10c-5.9-1.7-19.9,4.7-14.9,5.4c4.5-0.7,10.8-3.4,12,2.6
			c7.5-2,8.5,4.1,13.6-1.3c4.2,4.6,12.7-7.4,8.7,2.3c5.5,4.7,14.8,7.1,18.9,13.6c8.1,0.1,3.2,5.9,9,12.5c3.6,3.4,1.3,11.6,4.6,14.1"
			/>
		<path id="path4187" inkscape:connector-curvature="0" class="st0" d="M991,460.7c12.9-5.1,6.5,18.9,14.9,13.3
			c-1.8-10.1,10.5-7.4,6.4,1.5c1.6,11,20.2,11.5,16.9,25.6c-0.7,3.4,0.5,6.4,0.8,9.5"/>
		<path id="path4189" inkscape:connector-curvature="0" sodipodi:nodetypes="cccc" class="st0" d="M1012.6,469.1
			c0.5-6.9,6.7-10.8,13.1-6.1c16.8-4.2-15.7-10.5-1.5-19.2c3.2,0.3,5.2-1.2,6.4-3.1"/>
		<path id="path4191" inkscape:connector-curvature="0" sodipodi:nodetypes="ccc" class="st0" d="M1030.2,440.7
			c9.9-0.5,11,16.2,21.8,11c4.9,3.4,9.7,1.6,14.5,0.8"/>
		<path id="path4197" inkscape:connector-curvature="0" sodipodi:nodetypes="cccc" class="st0" d="M1084.2,411
			c5,8.3-10.8,11.3-10.8,20.5c-7.9,5.3,2.1,12.5,2.3,14.6c-3.1,1.6-10.2,1.7-9.5,6.4"/>
		<path id="path4199" inkscape:connector-curvature="0" sodipodi:nodetypes="ccc" class="st0" d="M1084.2,409.7
			c4,0,7.7,10.3,7.7,3.3c7,5.2,14-1.1,20.5-3.3"/>
		<path id="path4201" inkscape:connector-curvature="0" class="st0" d="M1110.9,411.5c6.2,3.1,2.6,7.1,4.1,11
			c4.5-1.1,9.3,7.3,13.3,0.3c5.6-2.3,9.6-15.3,14.9-11.5c4,8.3-12.1,20.8-2.6,26.9"/>
		<path id="path4205" inkscape:connector-curvature="0" class="st0" d="M1061.5,353.9c3.9-0.9,5.7-0.7,10.8,4.6
			c8.8,2.6,15.5,6.8,25.3,2c8.6-3.9,7.1,10.2,16.4,8.2c-1.4,2.1,2.1,9.3-4.4,12.8c-1.1,3,0.3,13,4.6,6.7c7-0.5,14.5,1.9,17.2-5.4
			c9-1.1,9.2-14.4,18.7-15.1c4.9-5.3,9.8,1.2,16.4-3.1c5.6-3.2,4-9.4,6.7-15.1c5-6.7,13.2,0.5,21-0.3c3.2,10.3,13.4,6.9,18.9,0.8
			c14-0.9-9.6,17.7,3.8,20.5c-0.1,9,6.3,17.6,15.9,12c18.5-2.7,31.6-12,44.6-21.3c7.2-4.1,14.7-7.6,21.8-12.3"/>
		<path id="path4211" inkscape:connector-curvature="0" sodipodi:nodetypes="cc" class="st0" d="M1145.4,260.3
			c4.4-3.8,7.5-8.2-1.3-12.6"/>
		<path id="path4213" inkscape:connector-curvature="0" sodipodi:nodetypes="ccccc" class="st0" d="M1205.4,251
			c-9.3-8.1-16.2,7.9-25.6,9.7c3.5,4.6-5.1,7.4-5.4,13.3c-5.6,6.6-7.1-18.7-12.8-4.6c-9.2,2.1-17.8,2.9-16.4-9.5"/>
		<path id="path4221" inkscape:connector-curvature="0" sodipodi:nodetypes="cc" class="st0" d="M1209.2,217.2
			c0.3,1.8,1.9,9.7,1.1,12.4"/>
		<path id="path4223" inkscape:connector-curvature="0" class="st0" d="M1210,228.4c1.8,8.6,3.2,13.3,2.3,21.3
			c-2.4,0-4.3,0.8-6.7,1.3"/>
		<path id="path4225" inkscape:connector-curvature="0" sodipodi:nodetypes="ccccccc" class="st0" d="M1261.4,230
			c10.1,6.6-6.6,13.4-0.3,20.5c4.8,5.3,14.9-2.1,15.9,1.3c4.6,0.4,0.8,14.4,9.5,9.5c6.7-0.2,16.2,2.3,13.6,9.5
			c3.1,1.8,5.4,14,10,7.7c0.8-5.5,4.3,7.1,8.2,2"/>
		<path id="path4227" inkscape:connector-curvature="0" sodipodi:nodetypes="cc" class="st0" d="M1209.7,217.2
			c1.9-5.9,1.4-9.6-0.8-12"/>
		<path id="path4233" inkscape:connector-curvature="0" sodipodi:nodetypes="cccc" class="st0" d="M1208.2,205.4
			c5.4-0.8,3.1-5.1,8.4-6.1c2.6-6.5-1.6-14.2,7.7-9.7c2.3,0.3,4,3,5.1,4"/>
		<path id="path4235" inkscape:connector-curvature="0" class="st0" d="M1229.4,193.9c-1.1,6.2,6.2,6.4,7.4,3.1
			c5.6-1.6,13.6,8.5,12.5,14.6c5.7,4.2,19.7,2.8,12.5,12.3c-0.5,2.1-2.8,2.7-1.3,5.9"/>
		<path id="path4243" inkscape:connector-curvature="0" class="st0" d="M1194.3,661.9c5.5-6.6,23.1-3.8,20.7-13.8
			c-9.7-3.2-0.4-18.6,8.4-10.5c5.3,4,19.1,0.3,11,7.7c-5,13.2,13.8,13,19.7,18.2c9.2-3.2,18.3-3.8,26.1,1.8c2.8-8.4,6.5,3.3,9.7-1.5
			c-0.3-9.3,14-5.1,15.4-13.1c4.3-6.2,6.5-16,11.8-21.8c3.2-9.4-5.9-16.6-2.6-24.1c-3.6-4.1-9.9-15.8-2.3-19.5
			c0.7-8,8.6,2.4,13.3-4.9c3.7-1.7,7.1-5,10.2-5.6"/>
		<path id="path4247" inkscape:connector-curvature="0" sodipodi:nodetypes="cccc" class="st0" d="M1004.6,677.6
			c-1.3-0.3-2.8,0.8-4.1,4c-8.1,1.1-12.1,5.3-19.5,5.4c-0.1-2.9-1.5-4.8-3.8-5.6"/>
		<path id="path4249" inkscape:connector-curvature="0" class="st0" d="M1004.9,676.8c6-3.8,13.9-10.7,15.6,2.3
			c5.8,8,23.5,4,14.6-7.2c-1.5-2.9-2.2-7.4-1.3-10.8"/>
		<path id="path4251" inkscape:connector-curvature="0" sodipodi:nodetypes="cccccc" class="st0" d="M1033.5,685
			c-1.1,8.4,7.8,9.8,15.9,7.9c12.9-2.1,13.1,7.7,14.6,16.4c-0.5,3.7-8.9,6.1-5.6,14.1c-10.2,5,1.3,10.6,7.4,8.2
			c6.5-1.1,11.1-0.4,12.5,2"/>
		<path id="path4255" inkscape:connector-curvature="0" sodipodi:nodetypes="cccc" class="st0" d="M1078.6,732.6
			c-1.7-8.9,4.7-23,15.1-17.7c3.5,2.6,6.2,3.3,2.3,8.2c-0.5,5.1,7.4,5.3,3.1,10.8"/>
		<path id="path4257" inkscape:connector-curvature="0" class="st0" d="M1099.1,734.1c2.9,11.6-3.9,23.1-10,31.2
			c-1.4,12.2,16.4-4.9,15.9,9.2c1.8,4.5,8.7,0.9,8.2,6.9c8.5-1.8,10.9-11.7,18.7-13.3c-5.2,8.9,4.8,11.9,8.7,5.1
			c4.6-2.4,20.2-13,13.6,3.6"/>
		<path id="path3331" inkscape:connector-curvature="0" class="st0" d="M985.3,574.3c3,0.5,2.9-1.1,5.6-1.2"/>
		<path id="path3971" inkscape:connector-curvature="0" sodipodi:nodetypes="cccccccccccccccccc" class="st0" d="M738.7,1511
			c1.4,2.9,2.3,7.2,6.3,7.3c3,0.7,6.7-2.2,9.2-0.6c-4-0.2-4.5,5.5-3,7.7c3.4,1.6,0.9,4.6-1.7,5c-2,2.2-0.2,4.6,2.3,4.4
			c2.6,0.9,2.5,3-0.4,2.2c-2.9-0.2-6.1,1.3-7.6,3.9c-0.8,1.7-0.3,3.8-0.4,5.7c-0.1,1.3,0.2,2.6-0.2,2.5c-1.5,1.6-4.8,2.6-6.5,4.8
			c-1.7,1.3-7.4,2.4-5.2,5.2c1.3,2.8,3.7,3.4,6.3,3.8c1.8,1.5,1.7,4.7,4,6.4c1.3,3.6-2.9,5.2-5.3,6.7c-2.6,2.7-0.2,7,2.3,8.8
			c2.3,2.3,2.5,5.8,4.8,8.2c1.5,3.4,5.2,4.6,7.5,7.3"/>
		<path id="path3979" inkscape:connector-curvature="0" sodipodi:nodetypes="ccccccccccccccccccc" class="st0" d="M747.7,1473.9
			c-0.1,1.4,0,5.2,1.1,5.8c-0.1,1.3,1.5,1.8,1,3.3c-0.1,1.2-0.9,2.8-1.4,3.5c-0.9,0.2-0.5,1.8-1.5,1.9c-0.4,0.8-1.3,0.5-1.2,1.3
			c-1,0.5-0.2,0-1,0.7c-0.7,0.5-1.7,0.6-1.7,1.5c-1.3,0.1-1.8,1.2-2.8,2c0.1,0.3,0.2,0.4-0.4,0.6c-0.5,0.5-1.1,0.3-1.3,1.2
			c-0.1-0.6-0.8,0.5-1.1,0.4c-0.7,0.4-0.7,1.2-1.6,0.9c0.5,0.2-0.6,0.7-0.2,1.4c0.2,1.6-0.4,4.1,0.3,5.2c-0.3,0.9,1.3,0.9,0.7,1.9
			c0.8,0.5,0.1,1.4,1.1,1.8c0.1,1.3,1,2.2,0.7,3.7c-0.1,1,0.1,1.9,0.4,2.3"/>
	</g>
</g>
</svg>
